<svg xmlns="http://www.w3.org/2000/svg" width="80" height="63" viewBox="0 0 80 63">
  <g fill="#CCC">
    <g transform="translate(.5)">
      <path d="M8.78984615 22.6343478C8.78984615 22.6343478 11.2732019 19.4588656 9.66714904 15.0487826 8.05549038 10.6414802 4.30242788 8.96753953 4.30242788 8.96753953 4.30242788 8.96753953 1.4939375 12.7519802 3.06355288 17.0480573 4.63036538 21.346915 8.78984615 22.6343478 8.78984615 22.6343478zM15.6821394 24.8894407C15.6821394 24.8894407 20.0238077 24.5446423 22.5099663 20.6934664 24.996125 16.8450711 23.0957692 12.5406522 23.0957692 12.5406522 23.0957692 12.5406522 19.0652212 13.3525968 16.5117933 17.3038755 13.9611683 21.2523735 15.6821394 24.8894407 15.6821394 24.8894407zM16.1221923 29.977998C14.112524 34.2240237 16.2959712 37.610834 16.2959712 37.610834 16.2959712 37.610834 20.5591587 36.7043478 22.5155721 32.5695474 24.4691827 28.4291858 22.0194615 24.4083913 22.0194615 24.4083913 22.0194615 24.4083913 18.1318606 25.7319723 16.1221923 29.977998zM25.9350913 33.3981759C25.9350913 33.3981759 22.1876346 35.0832391 20.5899904 39.4933221 18.9923462 43.911747 21.4841106 47.0761067 21.4841106 47.0761067 21.4841106 47.0761067 25.6379856 45.7775514 27.1963894 41.475913 28.7519904 37.1742747 25.9350913 33.3981759 25.9350913 33.3981759zM29.0575048 56.6220178C29.0575048 56.6220178 32.6620144 54.1889644 32.9058654 49.6259466 33.1469135 45.0601482 29.3490048 42.2517095 29.3490048 42.2517095 29.3490048 42.2517095 26.2490144 44.9350198 25.9995577 49.6176047 25.7529038 54.2974091 29.0575048 56.6220178 29.0575048 56.6220178zM14.3255433 14.1367352C14.3255433 14.1367352 18.1682981 12.8632055 19.2950577 8.31131028 20.4246202 3.75941502 18.2411731.3003083 18.2411731.3003083 18.2411731.3003083 13.7901923 1.90195257 12.6886587 6.34262253 11.5899279 10.7805119 14.3255433 14.1367352 14.3255433 14.1367352zM8.78704327 32.3137292C8.78704327 32.3137292 10.2137115 28.5515336 7.36878365 24.811583 4.51825 21.0688518.43725 20.5655573.43725 20.5655573.43725 20.5655573-1.12115385 25.0034466 1.65370192 28.6516364 4.42855769 32.3026067 8.78704327 32.3137292 8.78704327 32.3137292zM11.9711202 42.240587C11.9711202 42.240587 12.5176827 38.2587213 8.90756731 35.2389545 5.29184615 32.2164071 1.19963462 32.6279407 1.19963462 32.6279407 1.19963462 32.6279407.672692308 37.2994032 4.19311538 40.2440929 7.71914423 43.186002 11.9711202 42.240587 11.9711202 42.240587zM16.8201106 50.4490138C16.8201106 50.4490138 16.1334038 46.4893933 11.7665096 44.698666 7.3968125 42.9023775 3.62412981 44.5234862 3.62412981 44.5234862 3.62412981 44.5234862 4.54908173 49.1337747 8.80386058 50.8855731 13.0586394 52.6290296 16.8201106 50.4490138 16.8201106 50.4490138zM18.9390913 53.8580692C14.3872067 52.5956621 10.833149 54.6505494 10.833149 54.6505494 10.833149 54.6505494 12.3046635 59.1162451 16.7388269 60.3480652 21.1785962 61.5798854 24.6485673 58.9688715 24.6485673 58.9688715 24.6485673 58.9688715 23.490976 55.1176957 18.9390913 53.8580692z"/>
      <path d="M14.7992308,16.8506324 L12.7755481,15.8635079 C12.6690385,16.0831779 2.259125,38.019587 31.5100288,62.8256087 L32.9731346,61.1266423 C5.12367308,37.50517 14.3900096,17.6820415 14.7992308,16.8506324 Z"/>
    </g>
    <g transform="translate(46.5)">
      <path d="M24.0320547 22.5926383C24.0320547 22.5926383 21.5639379 19.4171561 23.1611183 15.0098538 24.7555163 10.5997708 28.4841257 8.92583004 28.4841257 8.92583004 28.4841257 8.92583004 31.2694527 12.7074901 29.7112278 17.0063478 28.1613506 21.3052055 24.0320547 22.5926383 24.0320547 22.5926383zM17.1897781 24.8477312C17.1897781 24.8477312 12.8796169 24.5001522 10.4087175 20.6517569 7.94060059 16.8033617 9.82716568 12.4989427 9.82716568 12.4989427 9.82716568 12.4989427 13.8284645 13.3108874 16.366145 17.2593854 18.8982604 21.210664 17.1897781 24.8477312 17.1897781 24.8477312zM16.7529186 29.9335079C18.748003 34.1795336 16.5804009 37.5663439 16.5804009 37.5663439 16.5804009 37.5663439 12.3481509 36.6598577 10.4031524 32.5250573 8.46650148 28.3846957 10.8956627 24.3639012 10.8956627 24.3639012 10.8956627 24.3639012 14.7578343 25.6902628 16.7529186 29.9335079zM7.01123077 33.3564664C7.01123077 33.3564664 10.7287101 35.038749 12.3175429 39.4571739 13.9035932 43.8728182 11.4271287 47.0371779 11.4271287 47.0371779 11.4271287 47.0371779 7.30618047 45.7358419 5.7590858 41.4342036 4.21199112 37.1325652 7.01123077 33.3564664 7.01123077 33.3564664zM3.90591124 56.5775277C3.90591124 56.5775277.330341716 54.1472549.088260355 49.5814565-.151038462 45.0156581 3.62209172 42.2044387 3.62209172 42.2044387 3.62209172 42.2044387 6.69402071 44.887749 6.9444497 49.5731146 7.19209615 54.2584802 3.90591124 56.5775277 3.90591124 56.5775277zM18.5309645 14.0950257C18.5309645 14.0950257 14.7216612 12.821496 13.6030784 8.26960079 12.481713 3.71770553 14.6520976.255818182 14.6520976.255818182 14.6520976.255818182 19.0707781 1.85746245 20.1615355 6.30091304 21.2522929 10.7360217 18.5309645 14.0950257 18.5309645 14.0950257zM24.0348373 32.2720198C24.0348373 32.2720198 22.6185222 28.5098241 25.4400222 24.7698735 28.2698698 21.0271423 32.324037 20.5238478 32.324037 20.5238478 32.324037 20.5238478 33.8739142 24.9617372 31.1164127 28.6099269 28.3589112 32.2608972 24.0348373 32.2720198 24.0348373 32.2720198zM20.8738669 42.1988775C20.8738669 42.1988775 20.3284882 38.2170119 23.9151879 35.1916838 27.5046701 32.171917 31.5671849 32.5834506 31.5671849 32.5834506 31.5671849 32.5834506 32.0903033 37.2576937 28.592645 40.1996028 25.0949867 43.1415119 20.8738669 42.1988775 20.8738669 42.1988775zM16.0572825 50.4073043C16.0572825 50.4073043 16.7417885 46.4449032 21.0769926 44.6513953 25.4177618 42.8551067 29.160284 44.4762154 29.160284 44.4762154 29.160284 44.4762154 28.2420444 49.086504 24.018142 50.8355217 19.7914571 52.5873202 16.0572825 50.4073043 16.0572825 50.4073043zM13.953679 53.8163597C18.4725311 52.5567332 22.0035799 54.6088399 22.0035799 54.6088399 22.0035799 54.6088399 20.5455266 59.0717549 16.1407589 60.311917 11.7359911 61.5381759 8.29120118 58.9271621 8.29120118 58.9271621 8.29120118 58.9271621 9.43760947 55.0787668 13.953679 53.8163597z"/>
      <path d="M18.063497,16.8089229 L20.0780592,15.8217984 C20.1837959,16.0414684 30.5181657,37.9778775 1.47675,62.7811186 L0.0270443787,61.0821522 C27.6688402,37.4662411 18.4697485,17.6375514 18.063497,16.8089229 Z"/>
    </g>
  </g>
</svg>
