<svg xmlns="http://www.w3.org/2000/svg" width="81" height="64" viewBox="0 0 81 64"><g><g><g><path d="M25.6 42.667c-.533 0-1.067-.267-1.333-.8l-10.667-32c0-.534 0-.8.267-1.334.266-.266.533-.533 1.066-.533h6.4C24 8 26.667 9.333 28 11.733L42.667 40.8c.266.533 0 1.333-.534 1.867-.533.266-1.333 0-1.866-.534L25.6 13.067c-.8-1.334-2.4-2.4-4.267-2.4H16.8l10.133 30.4c.267.8-.266 1.333-.8 1.6H25.6z"/></g><g><g><path d="M57.6 39.997h-2.667c-.8 0-1.333-.534-1.333-1.334s.533-1.333 1.333-1.333H57.6c.8 0 1.333.533 1.333 1.333 0 .8-.533 1.334-1.333 1.334z"/></g><g><path d="M57.6 58.667H22.933c-.8 0-1.333-.534-1.333-1.334S22.133 56 22.933 56H57.6c.8 0 1.333.533 1.333 1.333 0 .8-.533 1.334-1.333 1.334z"/></g><g><path fill="#179e6e" d="M68.267 34.667H54.933c-.8 0-1.333-.534-1.333-1.334v-16c0-.8.533-1.333 1.333-1.333.8 0 1.334.533 1.334 1.333V32h12c.8 0 1.333.533 1.333 1.333 0 .8-.533 1.334-1.333 1.334z"/></g><g><path d="M72.27 58.667c-.8 0-1.333-.534-1.333-1.334S71.47 56 72.27 56c2.933 0 5.333-2.4 5.333-5.6v-16l-2.133-1.333c-.267-.267-.533-.8-.533-1.067V18.667c0-.534.266-1.067.8-1.067l1.866-1.067v-4.266c-1.066-.8-2.133-1.334-3.466-1.334-.267 0-.8-.266-.8-.266l-6.934-6.934c-.8-.266-3.466-1.066-4.266-1.066h-19.2v38.666c0 .8-.534 1.334-1.334 1.334h-33.6L3.47 56h4.8c.8 0 1.333.533 1.333 1.333 0 .8-.533 1.334-1.333 1.334H1.603c-.533 0-.8-.267-1.066-.534C.27 57.6.27 57.333.27 56.8l5.333-16c.267-.267.8-.8 1.334-.8H40.27V1.333c0-.8.533-1.333 1.333-1.333h20.534c.8 0 5.066.8 6.133 2.133l6.4 6.4c1.867.267 3.733 1.067 5.067 2.4.266.267.533.534.533.8v5.6c0 .534-.267 1.067-.8 1.067l-1.867 1.067V31.2l2.134 1.333c.266.267.533.8.533 1.067v16.8c0 4.533-3.733 8.267-8 8.267z"/></g><g><path d="M17.607 39.997h-5.334c-.8 0-1.333-.534-1.333-1.334s.533-1.333 1.333-1.333h5.334c.8 0 1.333.533 1.333 1.333 0 .8-.533 1.334-1.333 1.334z"/></g><g><path d="M65.603 13.337h-16c-.8 0-1.333-.534-1.333-1.334s.533-1.333 1.333-1.333h16c.8 0 1.334.533 1.334 1.333 0 .8-.534 1.334-1.334 1.334z"/></g><g><path fill="#179e6e" d="M69.593 55.995c0 2.93-2.397 5.328-5.328 5.328-2.93 0-5.328-2.397-5.328-5.328 0-2.93 2.397-5.328 5.328-5.328 2.93 0 5.328 2.397 5.328 5.328zM72.27 56c0-4.267-3.467-8-8-8-4.267 0-8 3.467-8 8 0 4.267 3.467 8 8 8 4.267 0 8-3.467 8-8z"/></g><g><path fill="#179e6e" d="M21.593 55.995c0 2.93-2.397 5.328-5.328 5.328-2.93 0-5.328-2.397-5.328-5.328 0-2.93 2.397-5.328 5.328-5.328 2.93 0 5.328 2.397 5.328 5.328zM24.27 56c0-4.533-3.467-8-8-8-4.533 0-8 3.467-8 8 0 4.533 3.467 8 8 8 4.267 0 8-3.467 8-8z"/></g></g><g><path d="M10.933 32C8 32 5.6 30.133 5.6 28c0-.8.533-1.333 1.333-1.333.8 0 1.334.533 1.334 1.333 0 .533 1.066 1.333 2.666 1.333 1.6 0 2.667-.8 2.667-1.333V9.333c0-.8.533-1.333 1.333-1.333.8 0 1.334.533 1.334 1.333V28c0 2.4-2.4 4-5.334 4z"/></g></g></g></svg>