<svg xmlns="http://www.w3.org/2000/svg" width="77" height="62" viewBox="0 0 77 62"><g><g><g><path fill="#2e2e2e" d="M69.149 25.348c-.513 0-1.025-.256-1.281-.768-3.588-8.704-8.2-18.176-9.226-19.2-1.793-1.28-8.2-2.816-18.706-2.816h-3.332c-10.506 0-16.913 1.536-18.45 3.072-1.025 1.024-5.638 10.496-9.225 19.2-.257.768-1.025 1.024-1.794.768-.769-.256-1.025-1.024-.769-1.792C7.647 20.74 14.31 5.636 16.36 3.844 18.923 1.54 26.61.26 36.604.26h3.332c9.994 0 17.681 1.28 20.244 3.584 2.05 1.792 8.713 17.152 9.994 19.968.256.768 0 1.28-.769 1.792 0-.256-.256-.256-.256-.256z"/></g><g><path fill="#2e2e2e" d="M22.03 46.08H3.086c-.768 0-1.28-.512-1.28-1.28s.512-1.28 1.28-1.28h15.616l-6.656-6.144c-1.024-1.024-2.56-1.536-3.84-1.536H2.83c-.768 0-1.28-.512-1.28-1.28s.512-1.28 1.28-1.28h5.376c2.048 0 4.096.768 5.376 2.304l9.216 8.192c.512.512.512 1.024.512 1.536s-.768.768-1.28.768z"/></g><g><path fill="#2e2e2e" d="M74.25 46.076H55.306c-.512 0-1.024-.256-1.28-.768s0-1.024.256-1.536l9.216-8.448c1.28-1.536 3.328-2.304 5.376-2.304h5.632c.768 0 1.28.512 1.28 1.28s-.512 1.536-1.28 1.536H69.13c-1.28 0-2.56.512-3.584 1.536l-6.912 6.144H74.25c.768 0 1.28.512 1.28 1.28s-.512 1.28-1.28 1.28z"/></g><g><path fill="#179e6e" d="M22.542 35.84h32.256l-7.68 7.68H30.222zm26.112 9.728l10.24-10.24c.256-.256.512-.768.256-1.28s-.768-.768-1.28-.768h-38.4c-.512 0-1.28.256-1.28.768s0 1.024.256 1.536l10.24 10.24c.256 0 .768.256 1.024.256h17.92c.256 0 .768-.256 1.024-.512z"/></g><g><path fill="#179e6e" d="M69.256 61.44H60.02c-2.639 0-4.75-2.048-4.75-4.608V51.2c0-.768.528-1.28 1.32-1.28.791 0 1.583.512 1.583 1.28v5.632c0 1.024.791 2.048 2.11 2.048h9.237c1.056 0 2.111-.768 2.111-2.048V49.92c0-.768.528-1.28 1.32-1.28.791 0 1.319.512 1.319 1.28v6.912c-.264 2.56-2.375 4.608-5.014 4.608z"/></g><g><path fill="#179e6e" d="M15.899 61.44H7.64c-2.428 0-4.371-2.048-4.371-4.608V51.2c0-.768.486-1.28 1.214-1.28.729 0 1.215.512 1.215 1.28v5.632c0 1.28.728 2.048 1.942 2.048h8.5c.972 0 1.7-.768 1.7-2.048V51.2c0-.768.486-1.28 1.215-1.28.728 0 1.214.512 1.214 1.28v5.632c0 2.56-1.943 4.608-4.371 4.608z"/></g><g><path fill="#2e2e2e" d="M18.991 48.455H4.284c-.253-1.782-1.014-6.11-1.014-10.946 0-6.109 1.775-9.418 5.832-11.454C12.906 24.018 22.542 23 38.77 23c16.229 0 25.864 1.018 29.668 3.055 4.057 2.036 5.832 5.345 5.832 11.454 0 4.836-.76 9.164-1.014 10.946H58.549L52.463 51H25.077zM52.71 54l6.08-2.538h14.947c.506 0 1.013-.508 1.266-1.016 0-.254 1.267-5.584 1.267-12.438 0-7.108-2.027-11.17-7.093-13.708C64.87 22.015 54.99 21 38.27 21s-26.6 1.015-30.907 3.3C2.297 26.838.27 30.9.27 38.008c0 6.854 1.267 12.184 1.267 12.438.253.508.76 1.016 1.266 1.016H17.75L23.83 54H52.71z"/></g></g></g></svg>