<svg xmlns="http://www.w3.org/2000/svg" width="65" height="62" viewBox="0 0 65 62"><g><g><g><path d="M1.337 26.517c-.64 0-1.067-.427-1.067-1.067v-2.347c0-8.32 6.187-14.933 13.867-14.933h9.6c.64 0 1.066.427 1.066 1.067 0 .64-.426.853-1.066.853h-9.6c-6.614 0-11.734 5.547-11.734 12.8v2.347c0 .64-.426 1.28-1.066 1.28z"/></g><g><path fill="#2e2e2e" d="M63.207 26.093c-.64 0-1.067-.426-1.067-1.066v-2.56c0-7.04-5.12-12.16-11.733-12.16-.64-.214-1.067-.64-1.067-1.28s.427-1.067 1.067-1.067c7.893 0 13.866 6.187 13.866 14.293v2.774c0 .64-.426 1.066-1.066 1.066z"/></g><g><path fill="#179e6e" d="M53.607 18.625c-.427 0-.853-.213-1.067-.64L47.207 6.252c-.64-1.493-2.133-2.56-4.053-3.2-2.134-.64-4.48-.427-6.187.427L9.234 18.412c-.427.427-1.067.213-1.28-.213-.214-.427 0-1.067.426-1.494L36.114 1.772c2.346-1.28 5.333-1.493 7.893-.64 2.347.853 4.267 2.347 5.333 4.267l5.334 11.733c.213.64 0 1.067-.427 1.493h-.64z"/></g><g><path fill="#179e6e" d="M29.067 18.624c-.427 0-.64-.214-.853-.64-.214-.427 0-1.067.426-1.494l19.2-10.666c.427-.214 1.067 0 1.494.426.213.427 0 1.067-.427 1.494l-19.2 10.666c-.213.214-.427.214-.64.214z"/></g><g><path fill="#2e2e2e" d="M62.14 31.423v14.944h-9.6c-3.84 0-7.467-3.63-7.467-7.472 0-3.843 3.627-7.472 7.467-7.472zm2.133 16V30.357c0-.64-.426-1.067-1.066-1.067H52.54c-5.12 0-9.6 4.48-9.6 9.6 0 5.12 4.48 9.6 9.6 9.6h10.667c.64 0 1.066-.427 1.066-1.067z"/></g><g><path fill="#2e2e2e" d="M54.679 18.63c3.627 0 7.468 2.346 7.468 6.4v26.88c0 4.054-3.414 7.467-7.042 7.467H9.445c-3.841 0-7.042-3.2-7.042-7.04v-26.88c0-3.84 3.414-6.827 7.468-6.827zm9.591 33.28V25.243c0-4.693-4.267-8.533-9.6-8.533H9.87c-5.333 0-9.6 3.84-9.6 8.747v26.88c0 4.906 4.053 8.96 9.173 8.96h45.654c4.906 0 9.173-4.267 9.173-9.387z"/></g><g><path fill="#179e6e" d="M53.617 38.895c0 .643-.429 1.072-1.072 1.072s-1.072-.429-1.072-1.072.429-1.072 1.072-1.072 1.072.429 1.072 1.072zm2.123-.005c0-1.707-1.493-3.2-3.2-3.2s-3.2 1.493-3.2 3.2 1.493 3.2 3.2 3.2 3.2-1.493 3.2-3.2z"/></g></g></g></svg>