<svg xmlns="http://www.w3.org/2000/svg" width="491" height="556" viewBox="0 0 491 556"><defs><filter id="8h7ua" width="156%" height="380%" x="-18%" y="-130%" filterUnits="objectBoundingBox"><feGaussianBlur in="SourceGraphic" result="FeGaussianBlur1019Out" stdDeviation="15 15"/></filter><linearGradient id="8h7ub" x1="58.03" x2="259.03" y1="288.5" y2="288.5" gradientUnits="userSpaceOnUse"><stop offset="0" stop-color="#b5d7e2"/><stop offset="1" stop-color="#cddfd9"/></linearGradient><linearGradient id="8h7uc" x1="149.03" x2="304.03" y1="330.5" y2="330.5" gradientUnits="userSpaceOnUse"><stop offset="0" stop-color="#c0e4ef"/><stop offset="1" stop-color="#e0f0eb"/></linearGradient><linearGradient id="8h7ud" x1="257.03" x2="369.03" y1="324.5" y2="324.5" gradientUnits="userSpaceOnUse"><stop offset="0" stop-color="#c0e4ef"/><stop offset="1" stop-color="#e0f0eb"/></linearGradient><linearGradient id="8h7ue" x1="34.03" x2="154.03" y1="330.5" y2="330.5" gradientUnits="userSpaceOnUse"><stop offset="0" stop-color="#c0e4ef"/><stop offset="1" stop-color="#e0f0eb"/></linearGradient><linearGradient id="8h7uf" x1="50.03" x2="76.03" y1="385" y2="385" gradientUnits="userSpaceOnUse"><stop offset="0" stop-color="#e0f0eb"/><stop offset="1" stop-color="#c0e4ef"/></linearGradient><linearGradient id="8h7ug" x1="441.03" x2="462.03" y1="387.49" y2="387.49" gradientUnits="userSpaceOnUse"><stop offset="0" stop-color="#e0f0eb"/><stop offset="1" stop-color="#c0e4ef"/></linearGradient><linearGradient id="8h7uh" x1="288.04" x2="308.04" y1="361" y2="361" gradientUnits="userSpaceOnUse"><stop offset="0" stop-color="#e0f0eb"/><stop offset="1" stop-color="#c0e4ef"/></linearGradient><linearGradient id="8h7ui" x1="110.11" x2="151.5" y1="300.36" y2="300.36" gradientUnits="userSpaceOnUse"><stop offset="0" stop-color="#c0e4ef"/><stop offset="1" stop-color="#e0f0eb"/></linearGradient></defs><g><g transform="matrix(-1 0 0 1 473 0)"><g filter="url(#8h7ua)" opacity=".64"><path fill="#6c7995" d="M36.676 498.36L10 512.86l421 4.5-49.472-24z"/><path fill="none" stroke="#979797" stroke-miterlimit="50" d="M36.676 498.36v0L10 512.86v0l421 4.5v0l-49.472-24v0z"/></g><g><g><path fill="#b0d9c8" d="M298.697 330.744c-13.964-2.711-23.088-16.228-20.38-30.192 2.71-13.964 16.225-23.09 30.19-20.384 13.966 2.707 23.094 16.22 20.39 30.185a25.763 25.763 0 0 1-30.204 20.388zm74.937-24.159c-.692-1.376-6.113-3.706-12.556-5.075a57.3 57.3 0 0 0-3.561-16.344c4.896-3.035 9.743-6.747 9.82-9.596.163-5.785-10.137-17.688-12.463-18.456-1.49-.493-7.146 1.784-12.77 5.49a57.206 57.206 0 0 0-13.786-9.197c1.323-5.609 2.134-11.698.17-13.775-3.977-4.204-19.674-5.339-21.863-4.236-1.375.69-3.693 6.078-5.063 12.493a57.31 57.31 0 0 0-16.692 3.095c-2.97-4.71-6.518-9.217-9.275-9.294-5.785-.162-17.688 10.138-18.456 12.465-.457 1.385 1.477 6.374 4.73 11.59a57.277 57.277 0 0 0-10.127 14.587c-5.102-1.078-10.216-1.561-12.08.216-4.204 3.975-5.339 19.674-4.236 21.863.62 1.234 5.039 3.236 10.587 4.62a57.255 57.255 0 0 0 3.451 18.141c-4.098 2.74-7.673 5.824-7.74 8.257-.161 5.785 10.139 17.687 12.464 18.457 1.281.432 5.643-1.201 10.417-4.02a57.266 57.266 0 0 0 15.595 10.233c-.955 4.82-1.294 9.49.373 11.268 3.978 4.206 19.675 5.338 21.865 4.238 1.238-.623 3.235-5.062 4.63-10.627a57.292 57.292 0 0 0 17.758-3.973c2.832 4.333 6.079 8.233 8.628 8.304 5.786.162 17.688-10.138 18.456-12.465.46-1.392-1.497-6.424-4.78-11.665a57.19 57.19 0 0 0 9.276-14.707c5.392 1.21 11 1.862 12.99-.013 4.206-3.986 5.34-19.682 4.238-21.874z"/></g><g><path fill="#fff" d="M340.837 311.938c-3.825 19.743-22.997 32.695-42.742 28.868-19.746-3.827-32.694-22.999-28.87-42.743 3.826-19.745 23-32.693 42.746-28.868 19.743 3.825 32.691 23.001 28.866 42.743zm.512.107c3.886-20.027-9.25-39.487-29.278-43.366-20.028-3.88-39.48 9.256-43.361 29.284-3.882 20.027 9.256 39.478 29.284 43.357 20.029 3.881 39.469-9.248 43.355-29.275z"/></g><g><path fill="#fff" d="M358.016 304.23a16.571 16.571 0 0 1-.696-.23 50.842 50.842 0 0 1-.94 11.277c-5.554 28.102-33.395 46.534-62.064 41.09-18.77-3.566-33.31-16.499-39.556-32.891h-.73c6.275 16.718 21.051 29.93 40.158 33.558 29.04 5.516 57.242-13.156 62.87-41.623a51.52 51.52 0 0 0 .958-11.18z"/></g><g><path fill="#fff" d="M280.204 257c10.226-4.984 21.892-6.548 33.148-4.443.228.041.45.098.678.143-.038-.226-.064-.453-.091-.682-.153-.028-.304-.067-.46-.095-11.354-2.122-23.12-.56-33.449 4.44.051.21.11.425.174.637z"/></g><g><path fill="url(#8h7ub)" d="M120.55 283.796c3.378-20.254 22.535-33.935 42.789-30.556 20.253 3.378 33.933 22.537 30.555 42.791-3.38 20.255-22.537 33.935-42.791 30.558-20.253-3.38-33.933-22.538-30.554-42.793zm137.762 5.113c-1.053-1.96-8.962-5.118-18.31-6.848a82.634 82.634 0 0 0-5.752-23.455c6.95-4.562 13.804-10.1 13.804-14.218.013-8.352-15.294-25.137-18.68-26.16-2.157-.647-10.243 2.843-18.219 8.412a82.627 82.627 0 0 0-20.235-12.75c1.695-8.159 2.638-16.96-.276-19.882-5.895-5.917-28.587-6.963-31.705-5.289-1.941 1.035-5.093 8.91-6.827 18.207a82.589 82.589 0 0 0-23.964 5.097c-4.462-6.687-9.753-13.056-13.722-13.063-8.35-.015-25.135 15.293-26.158 18.682-.61 2.014 2.373 9.14 7.262 16.543a82.652 82.652 0 0 0-14.062 21.432c-7.402-1.366-14.798-1.868-17.431.755-5.916 5.895-6.96 28.588-5.289 31.707.943 1.758 7.392 4.475 15.45 6.268a82.688 82.688 0 0 0 5.659 26.047c-5.824 4.098-10.849 8.68-10.855 12.206-.015 8.352 15.291 25.137 18.678 26.162 1.865.563 8.098-1.941 14.882-6.195a82.672 82.672 0 0 0 22.888 14.178c-1.2 6.993-1.51 13.757.964 16.248 5.894 5.916 28.586 6.96 31.705 5.289 1.76-.945 4.488-7.424 6.28-15.509a82.701 82.701 0 0 0 25.47-6.401c4.25 6.145 9.08 11.647 12.769 11.647 8.351.013 25.135-15.295 26.158-18.681.612-2.028-2.4-9.213-7.333-16.656a82.586 82.586 0 0 0 12.826-21.57c7.823 1.543 15.96 2.27 18.74-.506 5.91-5.885 6.954-28.578 5.283-31.697z"/></g><g><path fill="#fff" d="M209.56 299.594c-4.74 28.414-31.706 47.68-60.12 42.937-28.415-4.741-47.675-31.71-42.935-60.126 4.739-28.416 31.71-47.677 60.123-42.937 28.414 4.74 47.672 31.712 42.932 60.126zm.743.126c4.807-28.825-14.738-56.184-43.55-60.993-28.812-4.809-56.198 14.75-60.998 43.564-4.8 28.813 14.739 56.166 43.56 60.981 28.822 4.81 56.182-14.728 60.988-43.552z"/></g><g><path fill="#fff" d="M234.939 286.311a22.581 22.581 0 0 1-1.006-.311 76.237 76.237 0 0 1-.913 16.531c-6.87 41.323-45.967 69.34-87.154 62.44-26.967-4.514-48.243-22.897-57.792-46.638-.349.02-.695.023-1.044.017 9.598 24.226 31.225 43.004 58.674 47.594 41.722 6.981 81.326-21.385 88.285-63.25a77.113 77.113 0 0 0 .95-16.383z"/></g><g><path fill="#fff" d="M122.319 223c14.88-7.935 32.02-10.746 48.703-7.99.341.056.671.131 1.008.191-.065-.34-.113-.683-.16-1.026-.231-.04-.455-.092-.685-.13-16.83-2.783-34.122.03-49.155 7.998.096.317.2.636.289.957z"/></g><g transform="rotate(180 -612.5 220)"><path fill="#fff" d="M7.03 402h429v46h-429z"/></g><g><path fill="#043c5e" d="M34.642 358h395.974s21.373 0 35.247 27.91c12.017 24.173 3.22 70.128.648 81.09h-32.565v-.756c0-31.14-25.098-56.384-56.058-56.384s-56.06 25.244-56.06 56.384V467H119.575v-.756c0-31.14-25.098-56.384-56.058-56.384s-56.06 25.244-56.06 56.384V467H-.97v-58.46C-.98 374.38 34.642 358 34.642 358z"/></g><g><path fill="#fff" d="M304.03 358h-155l11.065-55h89.855l54.08 55z"/></g><g><path fill="#212b53" d="M304.03 467V358.848l-46.438-55.83-95.347-.018-10.812 55.848s-7.095 7.844-13.059 13.821c-5.963 5.978-6.344 18.297-6.344 18.297v75.709z"/></g><g><path fill="url(#8h7uc)" d="M149.03 358l10.99-55 96.85.017L304.03 358h-155z"/></g><g><path fill="url(#8h7ud)" d="M369.03 358s-74.679-67-101.697-67c-5.622 5.608-10.303 11.058-10.303 11.058L303.735 358z"/></g><g><path fill="#7d899c" d="M267.03 292H83.453L69.03 303h187.884l10.116-11z"/></g><g><path fill="url(#8h7ue)" d="M34.03 358s3.775-32.927 34.15-55h85.85l-10.943 55z"/></g><g><path fill="#fff" d="M159.03 394c8.837 0 16-1.343 16-3s-7.163-3-16-3-16 1.343-16 3 7.163 3 16 3z"/></g><g><path fill="url(#8h7uf)" d="M50.03 385c0 7.18 5.82 13 13 13s13-5.82 13-13-5.82-13-13-13-13 5.82-13 13z"/></g><g><path fill="#2e2e2e" d="M378.53 512c25.681 0 46.5-20.819 46.5-46.5s-20.819-46.5-46.5-46.5-46.5 20.819-46.5 46.5 20.819 46.5 46.5 46.5z"/></g><g><path fill="#2e2e2e" d="M63.53 512c25.681 0 46.5-20.819 46.5-46.5S89.211 419 63.53 419s-46.5 20.819-46.5 46.5S37.849 512 63.53 512z"/></g><g><path fill="url(#8h7ug)" d="M442.99 377.126c1.005-.816 2.295-1.167 3.732-1.122l15.308 18.45c-.237 1.404-.835 2.588-1.84 3.408-3.383 2.752-9.976.341-14.726-5.384-4.75-5.725-5.858-12.609-2.474-15.352z"/></g><g><path fill="#01898c" d="M377.53 495c16.292 0 29.5-13.208 29.5-29.5s-13.208-29.5-29.5-29.5-29.5 13.208-29.5 29.5 13.208 29.5 29.5 29.5z"/></g><g><path fill="#d4dbe4" d="M377.53 495c16.292 0 29.5-13.208 29.5-29.5s-13.208-29.5-29.5-29.5-29.5 13.208-29.5 29.5 13.208 29.5 29.5 29.5z"/></g><g><path fill="#d4dbe4" d="M63.53 495c16.292 0 29.5-13.208 29.5-29.5S79.822 436 63.53 436s-29.5 13.208-29.5 29.5S47.238 495 63.53 495z"/></g><g><path fill="#043c5e" d="M153.974 303h7.056l-11.135 55h-6.865l10.944-55z"/></g><g><path fill="#043c5e" d="M307.03 358l-49.595-58-6.405 1.544L298.631 358h8.399z"/></g><g><path fill="url(#8h7uh)" d="M288.063 360.422c-.443 7.173 3.66 13.246 9.164 13.565 5.504.32 10.325-5.235 10.77-12.409.445-7.173-3.66-13.246-9.164-13.565-5.505-.32-10.317 5.237-10.77 12.409z"/></g><g><path fill="#2c5067" d="M223.553 64v415.206c0 14.566-11.875 26.374-26.522 26.374-14.647 0-26.521-11.808-26.521-26.374v-16.43c-.058-2.837-2.387-5.106-5.24-5.106s-5.182 2.269-5.24 5.106v16.43c0 20.286 16.6 36.794 37.001 36.794 20.402 0 36.999-16.506 36.999-36.794V64z"/></g><g><g><g><path fill="#212b53" d="M274.34 503.43s-4.501 3.871-14.756 6.296c-2.258.531-4.694-.18-4.694 3.274h12.447l10.354-1.66V513h5.592s1.555-8.483-1.713-9.57z"/></g><g><path fill="#f8b68f" d="M277.889 495.46l-.629 5.445c2.047 1.174 4.736 1.248 6.873.19l.385-.19 2.33-5.445z"/></g><g><path fill="#212b53" d="M325.468 503.43s-4.497 3.871-14.75 6.296c-2.257.531-4.688-.18-4.688 3.274h12.459l10.345-1.66V513h5.59s1.554-8.483-1.713-9.57z"/></g><g><path fill="#f8b68f" d="M325.832 495.46l-.632 5.445c2.047 1.174 4.736 1.248 6.873.19l.385-.19 2.33-5.445z"/></g><g><path fill="#13875e" d="M295.139 331.17h-14.417l-5.062 167.475h9.738l28.613-136.307-18.872-31.168z"/></g><g><path fill="#179e6e" d="M291.64 331.17l33.94 167.475h10.802l-4.43-167.475H291.64z"/></g><g><path fill="#f8b68f" d="M328.178 349.047l-4.578 9.41s.986 5.172 3.01 7.188c.623.602 1.578.782 2.401.452 1.906-.739 6.31-2.52 7.039-3.496a1.844 1.844 0 0 0 .226-1.677l-1.334-4.145-.168-9.659z"/></g><g><path fill="#f4a086" d="M301.383 228.88l-.153 12.975 12.024-.62.76-20.115-12.63 7.76z"/></g><g><path fill="#f8b68f" d="M300.407 232.28c-1.547-.045-2.981-.296-3.732-.963-4.464-7.054.62-26.075.62-26.075l7.133-3.262 9.062 6.144.517 12.744a10.67 10.67 0 0 1-4.047 8.792c-2.91 1.793-6.21 2.698-9.553 2.62z"/></g><g><path fill="#212b53" d="M312.127 213.83c-.536-2.057.915-6.8-1.244-6.458-1.576.251-6.973.466-8.79.466-4.327 0-12.043-1.641-12.043-8.039 0-3.192 2.021-4.81 4.046-5.627 2.025-.817 4.226 1.504 6.258 2.194 4.769 1.614 14.606 2.92 17.122 2.415 2.86-.573 5.85 2.254 6.071 3.942.484 3.685-2.073 9.345-3.963 12.909a19.718 19.718 0 0 1-4.323 5.483z"/></g><g><path fill="#f8b68f" d="M316.554 215.275c-1.07-.831-3.07-.676-4.478.339-1.408 1.014-1.668 2.535-.598 3.38 1.07.845 3.07.676 4.477-.338 1.408-1.014 1.67-2.56.599-3.38z"/></g><g><path fill="#fff" d="M308.537 238.661a34.4 34.4 0 0 1 13.954 2.845c9.596 4.206 16.395 12.947 18.796 23.103 3.79 15.977 10.123 53.892-4.417 87.124-4.28.387-9.73 0-9.73 0l-1.558-78.345 1.103 55.965h-45.086v-36.09s-1.168 8.15-12.06 15.678c-10.891 7.527-54.599 8.264-54.599 8.264v-8.484s38.64-13.23 44.476-17.636c5.837-4.404 18.451-36.166 18.451-36.166 3.952-7.754 11.16-13.471 19.72-15.226a54.74 54.74 0 0 1 10.95-1.032z"/></g><g><path fill="#fab746" d="M313.24 235.47l.771 4.795-14.381-.026.943-4.769h12.666z"/></g><g><path fill="#f8b68f" d="M209.816 310.208c-.525.393-2.461 1.584-7.155 1.952-4.216.341-13.19-1.399-11.476 2.518 4.034 2.048 8.51 4.914 8.51 4.914 2.57 1.024 7.127-.038 9.835-1.201l7.858-4.518s.678-4.16.747-4.35l-1.812-.683a22.902 22.902 0 0 1-6.507 1.368z"/></g><g><path fill="#63c1c5" d="M326.714 332.77l-1.514-54.196 1.667-.034 1.529 54.23h-1.682z"/></g></g><g><g><path fill="#f8b68f" d="M135.58 271.667s.399 49.166 12.821 48.581c12.423-.585 20.602-39.405 20.602-39.405l-5.032-1.523-12.067 23.483s1.81-7.653-1.252-21.736c-3.061-14.082-15.072-9.4-15.072-9.4z"/></g><g><path fill="#ffd247" d="M138.008 266.15l-.598.888c.146.096 14.597 9.643 14.597 25.231v63.528h-26.462l.845-48.92c-.348.28-.727.553-1.099.813l-.851 49.17h28.648v-64.58c0-16.166-14.93-26.034-15.08-26.13z"/></g><g><path fill="#63c1c5" d="M122.85 357.13c0-7.18 5.82-13 13-13h7.423c7.18 0 13 5.82 13 13v1.054c0 7.18-5.82 13-13 13h-7.423c-7.18 0-13-5.82-13-13z"/></g><g><path fill="#ffdb71" d="M156.273 356.861v-8.096c-.01-2.556-1.953-4.625-4.352-4.635H127.2c-2.399.01-4.342 2.08-4.351 4.635v8.096z"/></g><g><path fill="#00666a" d="M153.083 371.184c-1.75 0-3.183-.97-3.183-3.233v-20.588c0-2.263 1.434-3.233 3.183-3.233 1.753 0 3.183 1.852 3.183 3.233v19.71c0 3.141-1.43 4.11-3.183 4.11z"/></g><g><path fill="#f8b68f" d="M164.865 281.41l-2.225-9.977s1.68-4.882 3.691-6.505a1.68 1.68 0 0 1 2.06-.03c1.457 1.048 4.806 3.541 5.26 4.621a2.105 2.105 0 0 1-.096 1.678l-1.794 3.82-1.644 7.048z"/></g><g><path fill="url(#8h7ui)" d="M123.68 259.78c9.01 0 11.12 1.33 11.12 1.33s11.55 14.442 15.558 23.78a13.473 13.473 0 0 1-.057 10.94c-7.103 15.42-6.193 45.111-6.193 45.111h-26.295c1.16-22.13-21.48-76.961 5.867-81.161z"/></g><g><path fill="#f8b68f" d="M157.397 498.5l1.685 5.692a6.448 6.448 0 0 0 2.647 3.78c1.457.984 3.766 2.204 7.27 3.265-4.744 3.742-11.41 0-15.166-2.776a8.67 8.67 0 0 1-3.407-5.66l-.526-4.311z"/></g><g><path fill="#13875e" d="M145.202 340.95l12.657 157.37-8.63.178s-15.956-33.073-16.304-60.49c-.058-4.537.142-9.148-2.465-12.614-19.897-26.44-9.857-68.208-9.857-68.208l13.471-16.236z"/></g><g><path fill="#f8b68f" d="M110.821 498.49l2.071 5.695c.509 1.562 1.503 2.896 2.822 3.784 1.458.984 3.74 2.205 7.135 3.267-4.153 3.745-10.761 0-14.541-2.778-1.838-1.354-3.148-3.367-3.687-5.664l-.871-4.304z"/></g><g><path fill="#043c5e" d="M101.504 501.68s-3.018 2.191-2.467 4.988c.551 2.797 1.336 9.335 1.336 9.335h3.104l-.097-6.1c0-.398 6.654 6.1 7.781 6.1h16.42s1.08-4.114-8.552-5.437c-9.632-1.324-17.525-8.886-17.525-8.886z"/></g><g><path fill="#212b53" d="M139.26 227.52c-7.53.968-11.278 10.109-11.278 10.109l.085 27.055-13.055-10.69a91.49 91.49 0 0 1 2.271-25.506c2.796-8.374 14.067-10.578 21.976-6.495 3.85 1.989 6.136 5.887 7.495 9.745a29.264 29.264 0 0 1 .774 16.154l-4.479 19.85-5.575-5.232s-1.419-5.068-.024-9.944c2.867-9.95 6.866-25.697 1.81-25.045z"/></g><g><path fill="#f8b68f" d="M138.455 255.012c1.413-.043 2.723-.28 3.407-.908 4.075-6.67-.567-24.648-.567-24.648l-6.513-3.086-8.273 5.809-.471 12.048c-.126 3.216 1.245 6.3 3.693 8.31a15.507 15.507 0 0 0 8.724 2.475z"/></g><g><path fill="#179e6e" d="M119.323 340.95s-26.33 10.928-12.909 79.52c.787 4.018.284 8.208-.88 12.133-5.685 19.132-2.466 65.895-2.466 65.895h8.869s29.687-122.042 31.603-157.548z"/></g><g><path fill="#f8b68f" d="M115.33 270.006c9.556-9.654 27.783 14.23 34.321 21.266a13.808 13.808 0 0 0 4.301 3.12l43.7 16.663-2.744 4.427-48.19-10.115a18.988 18.988 0 0 1-5.31-2.326c-9.096-5.786-35.587-23.424-26.079-33.035z"/></g><g><path fill="#f4a086" d="M149.416 303.969l21.179 4.323-.428.826-20.953-4.278a19.303 19.303 0 0 1-5.453-2.067c-4.788-2.705-12.402-8.228-19.321-13.693.225-.217.457-.433.698-.65 7.273 5.728 15.271 11.407 19.092 13.562a18.428 18.428 0 0 0 5.186 1.977z"/></g><g><path fill="#f4a086" d="M135.557 253.855l.022 17.069-9.549-11.17 1.029-15.884 8.498 9.985z"/></g><g><path fill="#212b53" d="M138.8 227.587c.364 2.324 4.359 5.149 4.359 5.149l.376-2.782-.914-1.937-2.049-1.034s-2.13-1.72-1.771.604z"/></g><g><path fill="#212b53" d="M138.643 227.8c1.558 5.229-12.309 11.293-12.309 11.293l-3.484-6.528 6.366-7.795 8.048 1.285s1.111.876 1.38 1.745z"/></g><g><path fill="#f8b68f" d="M124.93 238.04c.798-.828 2.3-.67 3.346.36 1.047 1.03 1.25 2.52.448 3.352-.801.832-2.299.67-3.346-.36-1.047-1.03-1.249-2.52-.448-3.352z"/></g><g><path fill="#f8b68f" d="M198.592 310.503c.429.212 1.958.796 5.18.26 2.89-.486 8.568-3.406 8.188-.058-2.312 2.303-4.747 5.314-4.747 5.314-1.526 1.24-4.786 1.223-6.828.792l-6.154-2.128s-1.265-3.115-1.351-3.253l1.074-.853c1.54.235 3.106.21 4.638-.074z"/></g></g><g><path fill="#043c5e" d="M150.076 502s-3.388 2.142-3.087 4.876c.301 2.733.444 9.124.444 9.124h3.246l.523-5.965c.049-.387 6.336 5.965 7.511 5.965h17.168s1.559-4.024-8.384-5.315c-9.944-1.29-17.42-8.685-17.42-8.685z"/></g><g><path fill="#f8b68f" d="M209.667 311.616c-.13.168-.277.322-.44.461.528.205 1.022.435 1.53.68 2.073.052 4.143.167 6.213.243-.126-1.157-.303-2.78-.293-2.896L203.211 307s-1.09 1.374 1.362 2.85c1.56.91 3.292 1.51 5.094 1.766z"/></g><g><path fill="#f8b68f" d="M199.645 311c.135.088.28.166.435.232-.353.213-.707.44-1.017.675-1.572.35-3.126.74-4.69 1.093-.152-.776-.354-1.86-.403-1.937l9.606-4.063s1.127.73-.43 2.066c-.98.826-2.173 1.485-3.5 1.934z"/></g></g><g><path fill="#50bc96" d="M227.925.028V0c-.302 0-.594.013-.895.013-.3 0-.595-.013-.895-.013v.028C55.754 1.408.03 142.025.03 142.025S88.016 109.418 145.461 175c6.125-3.407 13.029-6.4 20.254-9.015 39.975-14.467 82.66-14.467 122.63 0 7.225 2.616 14.129 5.608 20.254 9.015 73.66-71.61 145.431-32.975 145.431-32.975S398.31 1.408 227.925.028z"/></g><g><path fill="#179e6e" d="M305.281 52.457c61.942 48.147 62.841 86.165 62.841 86.165C416.63 122.875 454.03 143 454.03 143S398.326 2.408 228 1.028V1c-.303 0-.595.013-.895.013-.3 0-.593-.013-.895-.013v.028a285.355 285.355 0 0 0-43.18 3.57c26.3-2.95 60.32-.289 122.251 47.859z"/></g></g></g><g><g transform="rotate(-297 -653.5 -38.5)"><path fill="#179e6e" d="M212.293 162.707a1 1 0 0 1 1.707.707V168a1 1 0 0 1-1 1h-4.586a1 1 0 0 1-.707-1.707z"/></g></g></g></svg>