<?xml version="1.0"?>
<svg xmlns="http://www.w3.org/2000/svg" height="512px" viewBox="0 -33 512 512" width="512px" class="mdl-js"><g><path d="m385.125 362.277344c-9.246094-.003906-17.578125 5.5625-21.121094 14.101562-3.539062 8.539063-1.585937 18.371094 4.945313 24.910156 9.054687 8.613282 23.277343 8.613282 32.332031 0 6.53125-6.535156 8.484375-16.363281 4.949219-24.902343-3.539063-8.535157-11.867188-14.105469-21.105469-14.109375zm0 0" data-original="#000000" class="active-path" data-old_color="#000000" fill="#179E6E"/><path d="m135.761719 232.75c1.714843 1.714844 4.042969 2.679688 6.46875 2.679688s4.753906-.964844 6.46875-2.679688l3.328125-3.335938c2.042968-2.121093 2.960937-5.082031 2.476562-7.984374 0-.253907 0-.511719-.054687-.765626v-.074218c-.210938-1.65625-.390625-3.191406-.457031-4.726563v-.96875c0-.414062 0-.816406 0-1.226562-.050782-1.382813-.007813-2.773438.136718-4.148438v-.101562c.082032-1.28125.210938-2.550781.367188-3.824219.082031-.777344.21875-1.699219.410156-2.742188.359375-2.011718.820312-4.003906 1.390625-5.96875.15625-.558593.257813-1.144531.421875-1.691406l.128906-.328125c0-.09375.054688-.203125.082032-.292969.027343-.09375.082031-.285156.144531-.421874.980469-2.832032 2.183593-5.582032 3.59375-8.226563.300781-.570313.492187-1.082031.851562-1.648437l1.078125-1.910157c.191406-.3125.410156-.601562.601563-.914062.988281-1.5 1.828125-2.742188 2.605469-3.738281l.210937-.257813c.4375-.574219.914063-1.152344 1.355469-1.71875 1.230468-1.550781 2.546875-3.03125 3.949218-4.433594 1.394532-1.398437 2.871094-2.714843 4.421876-3.941406.578124-.476563 1.152343-.914063 1.75-1.371094l.234374-.210937c1.253907-.914063 2.644532-1.910156 3.960938-2.742188l.308594-.171875c.25-.15625.503906-.285156.75-.441406l2.09375-1.195313c.941406-.574218 1.917968-1.085937 2.925781-1.527343l.914063-.429688.167968-.074219c.371094-.164062.820313-.3125 1.214844-.476562 1.390625-.59375 2.742188-1.195312 4.1875-1.679688.109375 0 .21875-.066406.335938-.109374l.195312-.074219c.4375-.136719.792969-.183594 1.222656-.3125 4.183594-1.269531 8.496094-2.066407 12.855469-2.375h.601563 1.582031c1.246093 0 2.480469-.128907 3.722656-.09375h.402344c2.292969.082031 3.976562.285156 5.640625.496093.191406 0 .375 0 .566406.042969 2.902344.476563 5.855469-.445312 7.972656-2.484375l3.347656-3.328125c3.570313-3.570312 3.570313-9.359375 0-12.929687l-84.050781-84.050782-96.921875 96.878907zm22.628906-119.617188c12.496094 12.496094 12.496094 32.757813 0 45.253907-12.496094 12.496093-32.757813 12.496093-45.253906 0-12.5-12.496094-12.5-32.757813-.003907-45.253907 12.515626-12.464843 32.757813-12.460937 45.265626.011719zm0 0" data-original="#000000" class="active-path" data-old_color="#000000" fill="#179E6E"/><path d="m126.875 362.277344c-9.238281.003906-17.566406 5.574218-21.105469 14.109375-3.535156 8.539062-1.582031 18.367187 4.949219 24.902343 9.054688 8.613282 23.277344 8.613282 32.332031 0 6.53125-6.539062 8.484375-16.371093 4.945313-24.910156-3.542969-8.539062-11.875-14.105468-21.121094-14.101562zm0 0" data-original="#000000" class="active-path" data-old_color="#000000" fill="#179E6E"/><path d="m225.132812 259.738281c-.101562.082031-.21875.109375-.320312.191407-37.941406 30.421874-82.230469 61.167968-110.371094 67.15625-5.691406 1.171874-11.164062 3.21875-16.230468 6.070312-.234376.136719-.492188.183594-.730469.292969-.238281.113281-.480469.214843-.730469.300781-.96875.363281-1.992188.5625-3.027344.585938-1.035156-.019532-2.058594-.21875-3.027344-.585938-.253906-.089844-.503906-.191406-.746093-.308594-.992188-.425781-1.902344-1.027344-2.679688-1.773437l-8.394531-8.402344-12.964844 12.917969 8.082032 8.082031c.164062.164063.21875.382813.375.558594.398437.484375.746093 1.011719 1.035156 1.570312.292968.476563.535156.980469.722656 1.507813.585938 1.644531.621094 3.433594.109375 5.101562-.144531.597656-.347656 1.179688-.605469 1.738282-.109375.210937-.109375.441406-.226562.648437-11.277344 19.554687-10.539063 43.800781 1.910156 62.628906 1.507812 2.222657 3.171875 4.335938 4.980469 6.320313.085937.097656.203125.136718.285156.234375 1.417969 1.808593 3.046875 3.4375 4.855469 4.855469.109375.09375.15625.21875.253906.304687 1.972656 1.785156 4.0625 3.433594 6.253906 4.933594 18.839844 12.464843 43.101563 13.21875 62.675782 1.941406.199218-.121094.429687-.121094.640624-.222656.582032-.277344 1.195313-.484375 1.828126-.621094.53125-.15625 1.074218-.261719 1.628906-.320313.585937-.019531 1.171875.015626 1.753906.109376.566406.058593 1.125.164062 1.671875.320312 1.105469.4375 2.144531 1.03125 3.082031 1.757812.175782.15625.394532.210938.566406.375l8.027344 8.082032 12.9375-12.929688-8.410156-8.402344c-.148438-.144531-.191406-.347656-.328125-.492187-.714844-.945313-1.308594-1.972656-1.777344-3.0625-.164062-.550781-.277343-1.117187-.335937-1.691406-.238282-1.121094-.171875-2.285157.183594-3.375.128906-.628907.324218-1.242188.582031-1.828125.09375-.183594.085937-.375.183593-.558594 2.847657-5.042969 4.890626-10.5 6.054688-16.171875 8.320312-39.058594 64.164062-109.09375 100.78125-150.207031.046875-.066406.054688-.140625.101562-.195313.042969-.054687.199219-.144531.28125-.246093 9.144532-10.238282 17.097657-18.742188 22.738282-24.375l26.980468-26.980469c-.054687-.109375-.109374-.199219-.15625-.300781-.578124-1.210938-1.21875-2.386719-1.917968-3.53125-.621094-1.011719-1.34375-1.972657-2.066406-2.933594-.203126-.246094-.421876-.492188-.558594-.695313l.21875.210938-.144532-.210938c-.273437-.289062-.523437-.59375-.757812-.914062l-.074219-.089844c-.8125-.96875-1.636719-1.9375-2.542969-2.851563-.90625-.917968-1.828124-1.71875-2.84375-2.535156l-.128906-.101562c-.308594-.234375-.601562-.5-.914062-.746094-2.324219-1.824219-4.839844-3.386719-7.503906-4.664062l-26.980469 26.988281c-6.015625 6.027343-15.34375 14.730469-26.515625 24.6875-10.972656 9.71875-23.769532 20.625-37.558594 31.667969-.136719.019531-.15625.140624-.210938.183593zm-69.15625 154.515625c-16.066406 16.066406-42.117187 16.066406-58.183593 0-16.066407-16.066406-16.066407-42.117187 0-58.183594 16.066406-16.070312 42.117187-16.070312 58.183593 0 7.773438 7.675782 12.148438 18.148438 12.148438 29.074219 0 10.921875-4.375 21.394531-12.148438 29.074219zm0 0" data-original="#000000" class="active-path" data-old_color="#000000" fill="#179E6E"/><path d="m145.460938 145.460938c3.925781-3.921876 5.097656-9.820313 2.976562-14.945313s-7.125-8.464844-12.671875-8.464844-10.546875 3.339844-12.667969 8.464844c-2.125 5.125-.949218 11.023437 2.972656 14.945313 5.355469 5.355468 14.039063 5.355468 19.390626 0zm0 0" data-original="#000000" class="active-path" data-old_color="#000000" fill="#179E6E"/><path d="m61.421875 61.421875 48.484375-48.484375-12.9375-12.9375-96.96875 96.976562 12.929688 12.929688zm0 0" data-original="#000000" class="active-path" data-old_color="#000000" fill="#179E6E"/><path d="m25.855469 122.84375 12.9375 12.925781 96.96875-96.976562-12.925781-12.929688-48.484376 48.488281zm0 0" data-original="#000000" class="active-path" data-old_color="#000000" fill="#179E6E"/><path d="m195.65625 176.210938c-.117188.054687-.199219.109374-.308594.15625-2.289062 1.125-4.464844 2.464843-6.5 4.003906-.238281.191406-.460937.390625-.714844.566406-.316406.308594-.667968.582031-1.042968.8125-.914063.804688-1.910156 1.609375-2.804688 2.507812-.898437.894532-1.730468 1.882813-2.542968 2.851563l-.09375.117187c-.191407.246094-.410157.53125-.621094.769532-.210938.238281-.265625.320312-.410156.511718-1.703126 2.214844-3.175782 4.601563-4.386719 7.121094l27.015625 26.9375c5.054687 5.054688 10.890625 11.207032 16.851562 17.761719 7.695313-6.253906 15.128906-12.496094 22.160156-18.566406-7.734374-6.988281-14.4375-13.3125-19.65625-18.535157zm0 0" data-original="#000000" class="active-path" data-old_color="#000000" fill="#179E6E"/><path d="m385.929688 145.472656c3.921874-3.921875 5.097656-9.820312 2.972656-14.945312-2.121094-5.125-7.121094-8.46875-12.667969-8.46875s-10.550781 3.34375-12.671875 8.46875-.949219 11.023437 2.976562 14.945312c5.351563 5.351563 14.035157 5.351563 19.390626 0zm0 0" data-original="#000000" class="active-path" data-old_color="#000000" fill="#179E6E"/><path d="m282.585938 152.027344c2.121093 2.039062 5.078124 2.960937 7.984374 2.488281.238282 0 .464844 0 .695313-.046875h.136719c1.5625-.210938 3.136718-.382812 4.707031-.457031h2.257813.566406.6875c.914062 0 1.828125 0 2.871094.136719 1.542968.089843 3.082031.246093 4.570312.457031.421875.054687.839844.109375 1.308594.191406 2.738281.4375 5.441406 1.0625 8.089844 1.875l.285156.074219c.347656.117187.613281.246094.914062.363281 1.753906.609375 3.480469 1.289063 5.175782 2.03125.152343.074219.335937.128906.492187.191406.300781.128907.667969.367188.988281.511719 1.132813.550781 2.257813 1.117188 3.355469 1.738281l1.828125 1.015625c.429688.273438.730469.484375 1.105469.730469.59375.382813 1.1875.777344 1.765625 1.1875.574218.414063 1.289062.914063 1.828125 1.328125.15625.117188.308593.253906.464843.382812l.101563.082032c2.050781 1.5625 4 3.25 5.84375 5.054687 1.398437 1.402344 2.71875 2.882813 3.949219 4.4375.472656.574219.914062 1.148438 1.371094 1.746094l.191406.226563c.914062 1.253906 1.921875 2.640624 2.796875 3.96875l.148437.253906c.191406.3125.355469.632812.539063.914062l1.125 1.941406c.5625.929688 1.066406 1.894532 1.507812 2.886719.164063.347657.308594.707031.476563 1.050781v.085938c.082031.191406.152344.429688.246094.628906.75 1.699219 1.460937 3.417969 2.046874 5.183594l.054688.136719c.101562.339843.136719.59375.230469.914062 1.351562 4.386719 2.183593 8.914063 2.476562 13.496094v.292969.75c.074219 1.535156.15625 3.070312.109375 4.570312v.339844c-.082031 2.285156-.285156 3.957031-.492187 5.613281 0 .199219 0 .402344-.046875.59375-.484375 2.902344.4375 5.863281 2.476562 7.980469l3.328125 3.339844c1.714844 1.714844 4.042969 2.679687 6.46875 2.679687s4.753907-.964843 6.46875-2.679687l84.042969-84.050782-96.816406-96.941406-84.050782 84.046875c-3.566406 3.570313-3.566406 9.359375 0 12.929688zm71.015624-38.882813c12.496094-12.492187 32.753907-12.492187 45.25.007813 12.492188 12.496094 12.492188 32.753906 0 45.25-12.496093 12.496094-32.753906 12.5-45.25.007812-12.484374-12.511718-12.480468-32.769531.007813-45.277344zm0 0" data-original="#000000" class="active-path" data-old_color="#000000" fill="#179E6E"/><path d="m473.207031 135.769531 12.9375-12.925781-48.496093-48.492188-48.484376-48.488281-12.925781 12.929688zm0 0" data-original="#000000" class="active-path" data-old_color="#000000" fill="#179E6E"/><path d="m402.09375 12.9375 48.484375 48.484375 48.492187 48.484375 12.929688-12.929688-96.96875-96.976562zm0 0" data-original="#000000" class="active-path" data-old_color="#000000" fill="#179E6E"/><path d="m435.867188 347.914062c.195312-.535156.441406-1.046874.730468-1.535156.289063-.550781.632813-1.066406 1.023438-1.546875.15625-.171875.210937-.394531.375-.566406l8.082031-8.082031-12.925781-12.929688-8.339844 8.339844c-.816406.8125-1.78125 1.460938-2.84375 1.910156-.179688.082032-.355469.15625-.539062.21875-2.007813.855469-4.277344.855469-6.289063 0-.183594-.0625-.355469-.136718-.539063-.21875-.285156-.09375-.5625-.207031-.832031-.339844-4.996093-2.859374-10.417969-4.890624-16.0625-6.015624-27.660156-5.894532-70.355469-35.703126-103.65625-61.722657-8.546875 9.765625-17.515625 20.433594-26.429687 31.5625 24.894531 32.082031 53.730468 73.636719 59.492187 100.570313 1.15625 5.691406 3.195313 11.167968 6.042969 16.230468.109375.191407.109375.410157.203125.609376.226563.511718.398437 1.046874.519531 1.59375.382813 1.066406.472656 2.214843.257813 3.328124-.058594.664063-.1875 1.320313-.386719 1.957032-.179688.445312-.394531.878906-.640625 1.296875-.308594.625-.695313 1.207031-1.152344 1.738281-.125.136719-.171875.316406-.300781.457031l-8.402344 8.402344 12.929688 12.917969 8.074218-8.082032c.164063-.164062.390626-.21875.566407-.375.933593-.726562 1.96875-1.3125 3.070312-1.746093.558594-.171875 1.128907-.285157 1.710938-.339844.566406-.085937 1.144531-.121094 1.71875-.101563.558593.054688 1.113281.160157 1.652343.320313.613282.140625 1.203126.347656 1.765626.621094.210937.101562.441406.101562.640624.222656 19.558594 11.261719 43.800782 10.523437 62.636719-1.914063 2.210938-1.515624 4.316407-3.179687 6.300781-4.980468.101563-.082032.136719-.191406.238282-.265625.835937-.671875 1.636718-1.386719 2.402344-2.140625l.183593-.164063.136719-.15625c.761719-.757812 1.476562-1.5625 2.140625-2.414062.082031-.097657.199219-.144531.285156-.234375 1.789063-1.972656 3.441407-4.066406 4.945313-6.265625 12.464844-18.839844 13.21875-43.105469 1.945312-62.683594-.117187-.199219-.117187-.429687-.21875-.636719-.273437-.566406-.480468-1.164062-.621094-1.777344-.15625-.53125-.261718-1.082031-.320312-1.636718-.023438-.582032.015625-1.167969.109375-1.746094.054687-.566406.164063-1.128906.320313-1.679688zm-21.648438 66.304688c-13.875 13.882812-35.628906 16.03125-51.949219 5.132812-16.324219-10.902343-22.675781-31.816406-15.167969-49.953124 7.503907-18.136719 26.777344-28.441407 46.03125-24.617188 19.25 3.824219 33.121094 20.714844 33.125 40.34375.027344 10.921875-4.328124 21.402344-12.085937 29.09375zm0 0" data-original="#000000" class="active-path" data-old_color="#000000" fill="#179E6E"/></g> </svg>
