<?xml version="1.0"?>
<svg xmlns="http://www.w3.org/2000/svg" xmlns:xlink="http://www.w3.org/1999/xlink" version="1.1" id="Capa_1" x="0px" y="0px" viewBox="0 0 512 512" style="enable-background:new 0 0 512 512;" xml:space="preserve" class="mdl-js" width="512px" height="512px"><g><g>
	<g>
		<path d="M341.333,106.667c-5.888,0-10.667,4.779-10.667,10.667v128c0,5.888,4.779,10.667,10.667,10.667    c5.888,0,10.667-4.779,10.667-10.667v-128C352,111.445,347.221,106.667,341.333,106.667z" data-original="#000000" class="active-path" data-old_color="#000000" fill="#179E6E"/>
	</g>
</g><g>
	<g>
		<path d="M384,170.667h-85.333c-5.888,0-10.667,4.779-10.667,10.667v181.333h-32c-5.888,0-10.667,4.779-10.667,10.667v128    c0,5.888,4.779,10.667,10.667,10.667h85.333c5.888,0,10.667-4.779,10.667-10.667v-32h32c5.888,0,10.667-4.779,10.667-10.667    V181.333C394.667,175.445,389.888,170.667,384,170.667z" data-original="#000000" class="active-path" data-old_color="#000000" fill="#179E6E"/>
	</g>
</g><g>
	<g>
		<path d="M341.333,0C311.915,0,288,23.936,288,53.333C288,78.976,308.779,128,341.333,128s53.333-49.024,53.333-74.667    C394.667,23.936,370.752,0,341.333,0z" data-original="#000000" class="active-path" data-old_color="#000000" fill="#179E6E"/>
	</g>
</g><g>
	<g>
		<path d="M149.333,21.333H128c-5.888,0-10.667,4.779-10.667,10.667v85.333c0,5.888,4.779,10.667,10.667,10.667    s10.667-4.779,10.667-10.667v-32h10.667c17.643,0,32-14.357,32-32C181.333,35.691,166.976,21.333,149.333,21.333z M149.333,64    h-10.667V42.667h10.667c5.867,0,10.667,4.779,10.667,10.667S155.2,64,149.333,64z" data-original="#000000" class="active-path" data-old_color="#000000" fill="#179E6E"/>
	</g>
</g><g>
	<g>
		<path d="M158.891,211.883c13.013-4.096,22.443-16.235,22.443-30.549c0-17.643-14.357-32-32-32H128    c-5.888,0-10.667,4.779-10.667,10.667v85.333c0,5.888,4.779,10.667,10.667,10.667s10.667-4.779,10.667-10.667v-24.875    l23.467,31.275c2.091,2.795,5.312,4.267,8.533,4.267c2.219,0,4.48-0.704,6.379-2.133c4.715-3.541,5.675-10.219,2.155-14.933    L158.891,211.883z M149.333,192h-10.667v-21.333h10.667c5.867,0,10.667,4.779,10.667,10.667S155.2,192,149.333,192z" data-original="#000000" class="active-path" data-old_color="#000000" fill="#179E6E"/>
	</g>
</g><g>
	<g>
		<path d="M149.333,277.333H128c-5.888,0-10.667,4.779-10.667,10.667v85.333c0,5.888,4.779,10.667,10.667,10.667h21.333    c17.643,0,32-14.357,32-32v-42.667C181.333,291.691,166.976,277.333,149.333,277.333z M160,352c0,5.888-4.8,10.667-10.667,10.667    h-10.667v-64h10.667c5.867,0,10.667,4.779,10.667,10.667V352z" data-original="#000000" class="active-path" data-old_color="#000000" fill="#179E6E"/>
	</g>
</g><g>
	<g>
		<path d="M170.667,405.333c-5.888,0-10.667,4.779-10.667,10.667v40.149l-22.443-44.928c-2.219-4.437-7.083-6.72-12.011-5.611    c-4.821,1.131-8.213,5.44-8.213,10.389v85.333c0,5.888,4.779,10.667,10.667,10.667s10.667-4.779,10.667-10.667v-40.149    l22.464,44.928c1.835,3.669,5.547,5.888,9.536,5.888c0.811,0,1.621-0.085,2.453-0.277c4.821-1.131,8.213-5.44,8.213-10.389V416    C181.333,410.112,176.555,405.333,170.667,405.333z" data-original="#000000" class="active-path" data-old_color="#000000" fill="#179E6E"/>
	</g>
</g></g> </svg>
