<svg xmlns="http://www.w3.org/2000/svg" width="65" height="64" viewBox="0 0 65 64"><g><g><g><path fill="#2e2e2e" d="M31.617 61.867c-.64 0-1.067-.427-1.067-1.067V1.067c0-.64.427-1.067 1.067-1.067.64 0 1.066.427 1.066 1.067V60.8c0 .64-.426 1.067-1.066 1.067z"/></g><g><path fill="#2e2e2e" d="M61.48 32.003H1.747c-.64 0-1.067-.426-1.067-1.066 0-.64.427-1.067 1.067-1.067H61.48c.64 0 1.067.427 1.067 1.067 0 .64-.427 1.066-1.067 1.066z"/></g><g><path fill="#2e2e2e" d="M55.08 14.933H8.147c-.64 0-1.067-.426-1.067-1.066 0-.64.427-1.067 1.067-1.067H55.08c.64 0 1.067.427 1.067 1.067 0 .64-.427 1.066-1.067 1.066z"/></g><g><path fill="#2e2e2e" d="M38.017 46.933h-32c-.64 0-1.067-.426-1.067-1.066 0-.64.427-1.067 1.067-1.067h32c.64 0 1.066.427 1.066 1.067 0 .64-.426 1.066-1.066 1.066z"/></g><g><path fill="#179e6e" d="M63.613 64.003c-.213 0-.426 0-.64-.213l-8.533-7.467a1.031 1.031 0 0 1 0-1.493 1.031 1.031 0 0 1 1.493 0l8.534 7.467a1.031 1.031 0 0 1 0 1.493c-.214 0-.64.213-.854.213z"/></g><g><path fill="#2e2e2e" d="M60.413 30.933c0 4.694-1.066 9.387-3.2 13.44-1.92-3.626-5.546-5.973-9.6-5.973-5.973 0-10.666 4.693-10.666 10.667 0 3.626 1.706 6.826 4.693 8.746a27.022 27.022 0 0 1-10.027 1.92c-15.786 0-28.8-13.013-28.8-28.8 0-15.786 13.014-28.8 28.8-28.8 15.787 0 28.8 13.014 28.8 28.8zM44.627 58.88c.426-.213.64-.64.64-1.067 0-.426-.66-.1-1.087-.313-3.413-1.28-5.1-4.807-5.1-8.433 0-4.694 3.84-8.534 8.533-8.534 4.054 0 7.467 2.56 8.32 6.4 0 .427.427.854.854.854.426.213.853 0 1.066-.427 2.987-4.907 4.694-10.667 4.694-16.427C62.547 13.867 48.68 0 31.613 0 14.547 0 .68 13.867.68 30.933.68 48 14.547 61.867 31.613 61.867c4.48 0 8.96-1.067 13.014-2.987z"/></g><g><path fill="#2e2e2e" d="M47.613 30.933c0 2.56-.006 5.507-.433 8.067-5.547.213-10.233 4.307-10.233 10.067 0 2.56.853 4.906 2.56 6.826-2.347 2.56-5.12 3.84-7.894 3.84-8.746 0-16-13.013-16-28.8 0-15.786 7.254-28.8 16-28.8 8.747 0 16 13.014 16 28.8zm-5.76 25.814c-.673-.747-.211-.444-.673-.747-2.673-1.753-2.5-4.653-2.5-7 0-4.693 2.853-9.033 8.5-9 0 0 1.14-.533 1 0-.174.664.927.107.927-.32.426-2.773.64-5.76.64-8.747C49.747 13.867 41.64 0 31.613 0 21.587 0 13.48 13.867 13.48 30.933c0 17.067 8.107 30.934 18.133 30.934 3.627 0 7.04-1.707 10.24-5.12z"/></g><g><path fill="#179e6e" d="M56.15 49.067c0 4.693-3.84 8.533-8.533 8.533-4.694 0-8.534-3.84-8.534-8.533 0-4.694 3.84-8.534 8.534-8.534 4.693 0 8.533 3.84 8.533 8.534zm2.133 0c0-5.974-4.693-10.667-10.666-10.667-5.974 0-10.667 4.693-10.667 10.667 0 5.973 4.693 10.666 10.667 10.666 5.973 0 10.666-4.693 10.666-10.666z"/></g></g></g></svg>