<svg xmlns="http://www.w3.org/2000/svg" width="65" height="64" viewBox="0 0 65 64"><g><g><path fill="#179e6e" d="M24.897 21.337c-.427 0-.854-.214-1.067-.64-.213-.64 0-1.067.64-1.494l21.333-8.533c.64-.213 1.067 0 1.28.64.214.64 0 1.067-.64 1.493L25.11 21.337h-.213z"/></g><g><g><path fill="#2e2e2e" d="M54.779 21.333c3.627 0 7.468 2.348 7.468 6.402v26.673c0 3.841-3.628 7.469-7.468 7.469H9.97c-3.84 0-7.468-3.628-7.468-7.682v-26.46c0-4.054 3.841-6.402 7.468-6.402zM64.37 54.4V27.733c0-4.906-4.267-8.533-9.6-8.533H9.97c-5.333 0-9.6 3.84-9.6 8.533V54.4c0 4.907 4.48 9.6 9.6 9.6h44.8c5.12 0 9.6-4.693 9.6-9.6z"/></g><g><path fill="#2e2e2e" d="M62.229 34.133v14.944H52.63c-3.84 0-7.466-3.63-7.466-7.472 0-3.843 3.627-7.472 7.466-7.472zm2.134 16V33.067c0-.64-.426-1.067-1.066-1.067H52.63c-5.12 0-9.6 4.48-9.6 9.6 0 5.12 4.48 9.6 9.6 9.6h10.667c.64 0 1.066-.64 1.066-1.067z"/></g><g><path fill="#2e2e2e" d="M1.437 28.802c-.64 0-1.067-.426-1.067-1.066 0-5.12 3.2-9.6 8.107-11.734L42.61 1.07c3.2-1.493 6.613-1.28 9.173.213 2.56 1.707 4.054 4.694 4.054 8.32V20.27c0 .64-.427 1.067-1.067 1.067-.64 0-1.067-.64-1.067-1.067V9.602c0-2.773-1.066-5.12-3.2-6.4-1.92-1.28-4.48-1.28-7.04-.213L9.33 17.922c-4.267 1.92-6.827 5.547-6.827 9.814 0 .64-.426 1.066-1.066 1.066z"/></g><g><path fill="#179e6e" d="M53.707 41.605c0 .643-.429 1.072-1.072 1.072s-1.072-.429-1.072-1.072.429-1.072 1.072-1.072 1.072.429 1.072 1.072zm2.123-.005c0-1.707-1.493-3.2-3.2-3.2s-3.2 1.493-3.2 3.2 1.493 3.2 3.2 3.2 3.2-1.493 3.2-3.2z"/></g></g></g></svg>