<svg xmlns="http://www.w3.org/2000/svg" width="65" height="64" viewBox="0 0 65 64"><g><g><g><path fill="#179e6e" d="M63.033 26.667c-.8 0-1.333-.534-1.333-1.334 0-11.2-6.933-22.666-22.667-22.666-.8 0-1.333-.534-1.333-1.334S38.233 0 39.033 0c17.6 0 25.334 12.8 25.334 25.333 0 .8-.534 1.334-1.334 1.334z"/></g><g><path fill="#179e6e" d="M49.7 26.663c-.8 0-1.333-.533-1.333-1.333 0-4.267-1.6-9.333-9.334-9.333-.8 0-1.333-.534-1.333-1.334s.533-1.333 1.333-1.333c7.734 0 12 4.267 12 12 0 .8-.533 1.333-1.333 1.333z"/></g><g><g><g><path fill="#2e2e2e" d="M16.901 2.667c1.333 0 2.133.8 2.133 2.133 0 3.466 1.066 7.998 2.666 13.064 0 .533 0 1.333-.8 2.133l-6.932 7.199c-.266.266-.266.8-.266 1.066 4.799 9.599 10.931 15.464 20.53 20.53.266.267.8.267 1.332 0l8.266-5.866c.533-.533 1.333-.8 2.133-.533 3.732 1.333 9.331 2.666 13.597 2.666 1.333 0 2.133 1.067 2.133 2.133V59.19c0 1.333-1.066 2.133-2.133 2.133C28.9 61.323 3.037 35.461 3.037 4.8c0-1.333.8-2.133 1.866-2.133zm47.469 56.8v-12a4.78 4.78 0 0 0-4.8-4.8c-4 0-9.333-1.334-12.8-2.4-1.6-.534-3.467 0-4.533 1.066l-7.467 5.334c-8.267-4.534-13.6-9.867-18.133-18.134l6.4-6.666c1.066-1.334 1.6-3.2 1.066-4.8-1.6-4.8-2.4-9.067-2.4-12.267a4.78 4.78 0 0 0-4.8-4.8h-12C2.503 0 .37 2.133.37 4.8c0 32 27.2 59.2 59.2 59.2 2.667 0 4.8-2.133 4.8-4.533z"/></g></g></g></g></g></svg>