<svg xmlns="http://www.w3.org/2000/svg" width="59" height="64" viewBox="0 0 59 64"><g><g><g><g><path fill="#179e6e" d="M25.3 42.667c-.213 0-.64 0-.853-.214L13.78 31.787a1.031 1.031 0 0 1 0-1.494 1.031 1.031 0 0 1 1.493 0l9.814 9.814L43.433 21.76a1.031 1.031 0 0 1 1.494 0 1.031 1.031 0 0 1 0 1.493l-19.2 19.2c.213.214-.214.214-.427.214z"/></g><g><path fill="#2e2e2e" d="M29.575 2.133l26.672 7.895v28.805c0 9.601-15.577 19.63-26.672 23.044C18.48 58.463 2.903 48.434 2.903 38.833V10.028zM29.783 64C39.81 61.013 58.37 50.56 58.37 38.827V9.173c0-.426-.427-.853-.853-1.066L29.783 0h-.426L1.623 8.107c-.64.213-.853.64-.853 1.066v29.654C.77 50.56 19.33 61.013 29.357 64z"/></g></g></g></g></svg>